<?xml version="1.0" standalone="no"?>
<!DOCTYPE svg PUBLIC "-//W3C//DTD SVG 20010904//EN"
 "http://www.w3.org/TR/2001/REC-SVG-20010904/DTD/svg10.dtd">
<svg version="1.0" xmlns="http://www.w3.org/2000/svg"
 width="300.000000pt" height="64.000000pt" viewBox="0 0 300.000000 64.000000"
 preserveAspectRatio="xMidYMid meet">
<metadata>
Created by potrace 1.10, written by Peter Selinger 2001-2011
</metadata>
<g transform="translate(0.000000,64.000000) scale(0.100000,-0.100000)"
fill="#000000" stroke="none">
<path d="M1083 449 c2 -80 4 -90 22 -94 11 -3 133 -25 270 -50 138 -25 261
-47 275 -50 30 -7 37 -10 -307 157 l-263 127 3 -90z m227 -41 c104 -51 190
-96 190 -99 0 -7 -139 14 -229 35 -76 18 -65 16 -105 16 -19 0 -41 6 -49 14
-16 16 -23 126 -8 126 6 0 96 -42 201 -92z"/>
<path d="M412 230 c-151 -87 -277 -162 -280 -166 -4 -4 -2 -4 5 0 6 3 139 40
295 80 l283 74 315 -29 c173 -16 513 -47 755 -69 470 -44 1031 -97 1105 -105
82 -9 27 4 -105 25 -123 19 -867 145 -1698 286 -207 35 -383 64 -390 64 -6 -1
-135 -72 -285 -160z m463 115 c44 -8 89 -17 100 -19 11 -3 43 -7 70 -11 28 -3
100 -15 160 -27 61 -11 124 -22 140 -24 17 -2 53 -9 80 -14 28 -5 91 -16 140
-24 199 -33 354 -58 431 -71 44 -7 105 -18 135 -24 30 -6 68 -13 84 -16 86
-16 98 -24 25 -19 -41 4 -95 8 -120 10 -94 7 -166 14 -200 18 -19 3 -66 8
-105 11 -38 3 -137 12 -220 20 -236 23 -363 34 -455 40 -46 4 -87 8 -90 10 -3
1 -48 6 -100 10 -52 3 -115 9 -140 12 -90 11 -110 8 -335 -52 -148 -40 -177
-46 -183 -41 -3 3 4 9 14 13 10 4 38 20 60 35 23 15 45 28 49 28 4 0 19 8 33
19 15 10 44 28 65 40 81 46 103 59 137 80 39 25 75 24 225 -4z"/>
</g>
</svg>
